<?xml version="1.0" encoding="utf-8" standalone="no"?>
<!DOCTYPE svg PUBLIC "-//W3C//DTD SVG 1.1//EN"
  "http://www.w3.org/Graphics/SVG/1.1/DTD/svg11.dtd">
<svg xmlns:xlink="http://www.w3.org/1999/xlink" width="331.8375pt" height="361.26pt" viewBox="0 0 331.8375 361.26" xmlns="http://www.w3.org/2000/svg" version="1.1">
 <metadata>
  <rdf:RDF xmlns:dc="http://purl.org/dc/elements/1.1/" xmlns:cc="http://creativecommons.org/ns#" xmlns:rdf="http://www.w3.org/1999/02/22-rdf-syntax-ns#">
   <cc:Work>
    <dc:type rdf:resource="http://purl.org/dc/dcmitype/StillImage"/>
    <dc:date>2026-04-17T15:53:20.062319</dc:date>
    <dc:format>image/svg+xml</dc:format>
    <dc:creator>
     <cc:Agent>
      <dc:title>Matplotlib v3.10.8, https://matplotlib.org/</dc:title>
     </cc:Agent>
    </dc:creator>
   </cc:Work>
  </rdf:RDF>
 </metadata>
 <defs>
  <style type="text/css">*{stroke-linejoin: round; stroke-linecap: butt}</style>
 </defs>
 <g id="figure_1">
  <g id="patch_1">
   <path d="M 0 361.26 
L 331.8375 361.26 
L 331.8375 0 
L 0 0 
z
" style="fill: #ffffff"/>
  </g>
  <g id="axes_1">
   <g id="patch_2">
    <path d="M 100.21875 275.04 
L 238.81875 275.04 
L 238.81875 53.28 
L 100.21875 53.28 
z
" style="fill: #ffffff"/>
   </g>
   <g id="QuadMesh_1">
    <path d="M 100.21875 53.28 
L 127.93875 53.28 
L 127.93875 81 
L 100.21875 81 
L 100.21875 53.28 
" clip-path="url(#p109170face)" style="fill: #27ae60; stroke: #cccccc; stroke-width: 0.4"/>
    <path d="M 127.93875 53.28 
L 155.65875 53.28 
L 155.65875 81 
L 127.93875 81 
L 127.93875 53.28 
" clip-path="url(#p109170face)" style="fill: #27ae60; stroke: #cccccc; stroke-width: 0.4"/>
    <path d="M 155.65875 53.28 
L 183.37875 53.28 
L 183.37875 81 
L 155.65875 81 
L 155.65875 53.28 
" clip-path="url(#p109170face)" style="fill: #27ae60; stroke: #cccccc; stroke-width: 0.4"/>
    <path d="M 183.37875 53.28 
L 211.09875 53.28 
L 211.09875 81 
L 183.37875 81 
L 183.37875 53.28 
" clip-path="url(#p109170face)" style="fill: #27ae60; stroke: #cccccc; stroke-width: 0.4"/>
    <path d="M 211.09875 53.28 
L 238.81875 53.28 
L 238.81875 81 
L 211.09875 81 
L 211.09875 53.28 
" clip-path="url(#p109170face)" style="fill: #27ae60; stroke: #cccccc; stroke-width: 0.4"/>
    <path d="M 100.21875 81 
L 127.93875 81 
L 127.93875 108.72 
L 100.21875 108.72 
L 100.21875 81 
" clip-path="url(#p109170face)" style="fill: #859641; stroke: #cccccc; stroke-width: 0.4"/>
    <path d="M 127.93875 81 
L 155.65875 81 
L 155.65875 108.72 
L 127.93875 108.72 
L 127.93875 81 
" clip-path="url(#p109170face)" style="fill: #a68e37; stroke: #cccccc; stroke-width: 0.4"/>
    <path d="M 155.65875 81 
L 183.37875 81 
L 183.37875 108.72 
L 155.65875 108.72 
L 155.65875 81 
" clip-path="url(#p109170face)" style="fill: #27ae60; stroke: #cccccc; stroke-width: 0.4"/>
    <path d="M 183.37875 81 
L 211.09875 81 
L 211.09875 108.72 
L 183.37875 108.72 
L 183.37875 81 
" clip-path="url(#p109170face)" style="fill: #e57e22; stroke: #cccccc; stroke-width: 0.4"/>
    <path d="M 211.09875 81 
L 238.81875 81 
L 238.81875 108.72 
L 211.09875 108.72 
L 211.09875 81 
" clip-path="url(#p109170face)" style="fill: #859641; stroke: #cccccc; stroke-width: 0.4"/>
    <path d="M 100.21875 108.72 
L 127.93875 108.72 
L 127.93875 136.44 
L 100.21875 136.44 
L 100.21875 108.72 
" clip-path="url(#p109170face)" style="fill: #27ae60; stroke: #cccccc; stroke-width: 0.4"/>
    <path d="M 127.93875 108.72 
L 155.65875 108.72 
L 155.65875 136.44 
L 127.93875 136.44 
L 127.93875 108.72 
" clip-path="url(#p109170face)" style="fill: #27ae60; stroke: #cccccc; stroke-width: 0.4"/>
    <path d="M 155.65875 108.72 
L 183.37875 108.72 
L 183.37875 136.44 
L 155.65875 136.44 
L 155.65875 108.72 
" clip-path="url(#p109170face)" style="fill: #27ae60; stroke: #cccccc; stroke-width: 0.4"/>
    <path d="M 183.37875 108.72 
L 211.09875 108.72 
L 211.09875 136.44 
L 183.37875 136.44 
L 183.37875 108.72 
" clip-path="url(#p109170face)" style="fill: #27ae60; stroke: #cccccc; stroke-width: 0.4"/>
    <path d="M 211.09875 108.72 
L 238.81875 108.72 
L 238.81875 136.44 
L 211.09875 136.44 
L 211.09875 108.72 
" clip-path="url(#p109170face)" style="fill: #27ae60; stroke: #cccccc; stroke-width: 0.4"/>
    <path d="M 100.21875 136.44 
L 127.93875 136.44 
L 127.93875 164.16 
L 100.21875 164.16 
L 100.21875 136.44 
" clip-path="url(#p109170face)" style="fill: #859641; stroke: #cccccc; stroke-width: 0.4"/>
    <path d="M 127.93875 136.44 
L 155.65875 136.44 
L 155.65875 164.16 
L 127.93875 164.16 
L 127.93875 136.44 
" clip-path="url(#p109170face)" style="fill: #27ae60; stroke: #cccccc; stroke-width: 0.4"/>
    <path d="M 155.65875 136.44 
L 183.37875 136.44 
L 183.37875 164.16 
L 155.65875 164.16 
L 155.65875 136.44 
" clip-path="url(#p109170face)" style="fill: #27ae60; stroke: #cccccc; stroke-width: 0.4"/>
    <path d="M 183.37875 136.44 
L 211.09875 136.44 
L 211.09875 164.16 
L 183.37875 164.16 
L 183.37875 136.44 
" clip-path="url(#p109170face)" style="fill: #27ae60; stroke: #cccccc; stroke-width: 0.4"/>
    <path d="M 211.09875 136.44 
L 238.81875 136.44 
L 238.81875 164.16 
L 211.09875 164.16 
L 211.09875 136.44 
" clip-path="url(#p109170face)" style="fill: #859641; stroke: #cccccc; stroke-width: 0.4"/>
    <path d="M 100.21875 164.16 
L 127.93875 164.16 
L 127.93875 191.88 
L 100.21875 191.88 
L 100.21875 164.16 
" clip-path="url(#p109170face)" style="fill: #e57e22; stroke: #cccccc; stroke-width: 0.4"/>
    <path d="M 127.93875 164.16 
L 155.65875 164.16 
L 155.65875 191.88 
L 127.93875 191.88 
L 127.93875 164.16 
" clip-path="url(#p109170face)" style="fill: #859641; stroke: #cccccc; stroke-width: 0.4"/>
    <path d="M 155.65875 164.16 
L 183.37875 164.16 
L 183.37875 191.88 
L 155.65875 191.88 
L 155.65875 164.16 
" clip-path="url(#p109170face)" style="fill: #a68e37; stroke: #cccccc; stroke-width: 0.4"/>
    <path d="M 183.37875 164.16 
L 211.09875 164.16 
L 211.09875 191.88 
L 183.37875 191.88 
L 183.37875 164.16 
" clip-path="url(#p109170face)" style="fill: #669e4c; stroke: #cccccc; stroke-width: 0.4"/>
    <path d="M 211.09875 164.16 
L 238.81875 164.16 
L 238.81875 191.88 
L 211.09875 191.88 
L 211.09875 164.16 
" clip-path="url(#p109170face)" style="fill: #859641; stroke: #cccccc; stroke-width: 0.4"/>
    <path d="M 100.21875 191.88 
L 127.93875 191.88 
L 127.93875 219.6 
L 100.21875 219.6 
L 100.21875 191.88 
" clip-path="url(#p109170face)" style="fill: #27ae60; stroke: #cccccc; stroke-width: 0.4"/>
    <path d="M 127.93875 191.88 
L 155.65875 191.88 
L 155.65875 219.6 
L 127.93875 219.6 
L 127.93875 191.88 
" clip-path="url(#p109170face)" style="fill: #27ae60; stroke: #cccccc; stroke-width: 0.4"/>
    <path d="M 155.65875 191.88 
L 183.37875 191.88 
L 183.37875 219.6 
L 155.65875 219.6 
L 155.65875 191.88 
" clip-path="url(#p109170face)" style="fill: #27ae60; stroke: #cccccc; stroke-width: 0.4"/>
    <path d="M 183.37875 191.88 
L 211.09875 191.88 
L 211.09875 219.6 
L 183.37875 219.6 
L 183.37875 191.88 
" clip-path="url(#p109170face)" style="fill: #27ae60; stroke: #cccccc; stroke-width: 0.4"/>
    <path d="M 211.09875 191.88 
L 238.81875 191.88 
L 238.81875 219.6 
L 211.09875 219.6 
L 211.09875 191.88 
" clip-path="url(#p109170face)" style="fill: #27ae60; stroke: #cccccc; stroke-width: 0.4"/>
    <path d="M 100.21875 219.6 
L 127.93875 219.6 
L 127.93875 247.32 
L 100.21875 247.32 
L 100.21875 219.6 
" clip-path="url(#p109170face)" style="fill: #27ae60; stroke: #cccccc; stroke-width: 0.4"/>
    <path d="M 127.93875 219.6 
L 155.65875 219.6 
L 155.65875 247.32 
L 127.93875 247.32 
L 127.93875 219.6 
" clip-path="url(#p109170face)" style="fill: #27ae60; stroke: #cccccc; stroke-width: 0.4"/>
    <path d="M 155.65875 219.6 
L 183.37875 219.6 
L 183.37875 247.32 
L 155.65875 247.32 
L 155.65875 219.6 
" clip-path="url(#p109170face)" style="fill: #27ae60; stroke: #cccccc; stroke-width: 0.4"/>
    <path d="M 183.37875 219.6 
L 211.09875 219.6 
L 211.09875 247.32 
L 183.37875 247.32 
L 183.37875 219.6 
" clip-path="url(#p109170face)" style="fill: #e57e22; stroke: #cccccc; stroke-width: 0.4"/>
    <path d="M 211.09875 219.6 
L 238.81875 219.6 
L 238.81875 247.32 
L 211.09875 247.32 
L 211.09875 219.6 
" clip-path="url(#p109170face)" style="fill: #27ae60; stroke: #cccccc; stroke-width: 0.4"/>
    <path d="M 100.21875 247.32 
L 127.93875 247.32 
L 127.93875 275.04 
L 100.21875 275.04 
L 100.21875 247.32 
" clip-path="url(#p109170face)" style="fill: #27ae60; stroke: #cccccc; stroke-width: 0.4"/>
    <path d="M 127.93875 247.32 
L 155.65875 247.32 
L 155.65875 275.04 
L 127.93875 275.04 
L 127.93875 247.32 
" clip-path="url(#p109170face)" style="fill: #27ae60; stroke: #cccccc; stroke-width: 0.4"/>
    <path d="M 155.65875 247.32 
L 183.37875 247.32 
L 183.37875 275.04 
L 155.65875 275.04 
L 155.65875 247.32 
" clip-path="url(#p109170face)" style="fill: #27ae60; stroke: #cccccc; stroke-width: 0.4"/>
    <path d="M 183.37875 247.32 
L 211.09875 247.32 
L 211.09875 275.04 
L 183.37875 275.04 
L 183.37875 247.32 
" clip-path="url(#p109170face)" style="fill: #27ae60; stroke: #cccccc; stroke-width: 0.4"/>
    <path d="M 211.09875 247.32 
L 238.81875 247.32 
L 238.81875 275.04 
L 211.09875 275.04 
L 211.09875 247.32 
" clip-path="url(#p109170face)" style="fill: #27ae60; stroke: #cccccc; stroke-width: 0.4"/>
   </g>
   <g id="matplotlib.axis_1">
    <g id="xtick_1">
     <g id="line2d_1">
      <defs>
       <path id="mf9eddccf43" d="M 0 0 
L 0 3.5 
" style="stroke: #000000; stroke-width: 0.8"/>
      </defs>
      <g>
       <use xlink:href="#mf9eddccf43" x="114.07875" y="275.04" style="stroke: #000000; stroke-width: 0.8"/>
      </g>
     </g>
     <g id="text_1">
      <!-- 511 -->
      <g transform="translate(116.010313 295.40125) rotate(-90) scale(0.07 -0.07)">
       <defs>
        <path id="DejaVuSans-35" d="M 691 4666 
L 3169 4666 
L 3169 4134 
L 1269 4134 
L 1269 2991 
Q 1406 3038 1543 3061 
Q 1681 3084 1819 3084 
Q 2600 3084 3056 2656 
Q 3513 2228 3513 1497 
Q 3513 744 3044 326 
Q 2575 -91 1722 -91 
Q 1428 -91 1123 -41 
Q 819 9 494 109 
L 494 744 
Q 775 591 1075 516 
Q 1375 441 1709 441 
Q 2250 441 2565 725 
Q 2881 1009 2881 1497 
Q 2881 1984 2565 2268 
Q 2250 2553 1709 2553 
Q 1456 2553 1204 2497 
Q 953 2441 691 2322 
L 691 4666 
z
" transform="scale(0.015625)"/>
        <path id="DejaVuSans-31" d="M 794 531 
L 1825 531 
L 1825 4091 
L 703 3866 
L 703 4441 
L 1819 4666 
L 2450 4666 
L 2450 531 
L 3481 531 
L 3481 0 
L 794 0 
L 794 531 
z
" transform="scale(0.015625)"/>
       </defs>
       <use xlink:href="#DejaVuSans-35"/>
       <use xlink:href="#DejaVuSans-31" transform="translate(63.623047 0)"/>
       <use xlink:href="#DejaVuSans-31" transform="translate(127.246094 0)"/>
      </g>
     </g>
    </g>
    <g id="xtick_2">
     <g id="line2d_2">
      <g>
       <use xlink:href="#mf9eddccf43" x="141.79875" y="275.04" style="stroke: #000000; stroke-width: 0.8"/>
      </g>
     </g>
     <g id="text_2">
      <!-- 512 -->
      <g transform="translate(143.730313 295.40125) rotate(-90) scale(0.07 -0.07)">
       <defs>
        <path id="DejaVuSans-32" d="M 1228 531 
L 3431 531 
L 3431 0 
L 469 0 
L 469 531 
Q 828 903 1448 1529 
Q 2069 2156 2228 2338 
Q 2531 2678 2651 2914 
Q 2772 3150 2772 3378 
Q 2772 3750 2511 3984 
Q 2250 4219 1831 4219 
Q 1534 4219 1204 4116 
Q 875 4013 500 3803 
L 500 4441 
Q 881 4594 1212 4672 
Q 1544 4750 1819 4750 
Q 2544 4750 2975 4387 
Q 3406 4025 3406 3419 
Q 3406 3131 3298 2873 
Q 3191 2616 2906 2266 
Q 2828 2175 2409 1742 
Q 1991 1309 1228 531 
z
" transform="scale(0.015625)"/>
       </defs>
       <use xlink:href="#DejaVuSans-35"/>
       <use xlink:href="#DejaVuSans-31" transform="translate(63.623047 0)"/>
       <use xlink:href="#DejaVuSans-32" transform="translate(127.246094 0)"/>
      </g>
     </g>
    </g>
    <g id="xtick_3">
     <g id="line2d_3">
      <g>
       <use xlink:href="#mf9eddccf43" x="169.51875" y="275.04" style="stroke: #000000; stroke-width: 0.8"/>
      </g>
     </g>
     <g id="text_3">
      <!-- 513 -->
      <g transform="translate(171.450313 295.40125) rotate(-90) scale(0.07 -0.07)">
       <defs>
        <path id="DejaVuSans-33" d="M 2597 2516 
Q 3050 2419 3304 2112 
Q 3559 1806 3559 1356 
Q 3559 666 3084 287 
Q 2609 -91 1734 -91 
Q 1441 -91 1130 -33 
Q 819 25 488 141 
L 488 750 
Q 750 597 1062 519 
Q 1375 441 1716 441 
Q 2309 441 2620 675 
Q 2931 909 2931 1356 
Q 2931 1769 2642 2001 
Q 2353 2234 1838 2234 
L 1294 2234 
L 1294 2753 
L 1863 2753 
Q 2328 2753 2575 2939 
Q 2822 3125 2822 3475 
Q 2822 3834 2567 4026 
Q 2313 4219 1838 4219 
Q 1578 4219 1281 4162 
Q 984 4106 628 3988 
L 628 4550 
Q 988 4650 1302 4700 
Q 1616 4750 1894 4750 
Q 2613 4750 3031 4423 
Q 3450 4097 3450 3541 
Q 3450 3153 3228 2886 
Q 3006 2619 2597 2516 
z
" transform="scale(0.015625)"/>
       </defs>
       <use xlink:href="#DejaVuSans-35"/>
       <use xlink:href="#DejaVuSans-31" transform="translate(63.623047 0)"/>
       <use xlink:href="#DejaVuSans-33" transform="translate(127.246094 0)"/>
      </g>
     </g>
    </g>
    <g id="xtick_4">
     <g id="line2d_4">
      <g>
       <use xlink:href="#mf9eddccf43" x="197.23875" y="275.04" style="stroke: #000000; stroke-width: 0.8"/>
      </g>
     </g>
     <g id="text_4">
      <!-- 514 -->
      <g transform="translate(199.170313 295.40125) rotate(-90) scale(0.07 -0.07)">
       <defs>
        <path id="DejaVuSans-34" d="M 2419 4116 
L 825 1625 
L 2419 1625 
L 2419 4116 
z
M 2253 4666 
L 3047 4666 
L 3047 1625 
L 3713 1625 
L 3713 1100 
L 3047 1100 
L 3047 0 
L 2419 0 
L 2419 1100 
L 313 1100 
L 313 1709 
L 2253 4666 
z
" transform="scale(0.015625)"/>
       </defs>
       <use xlink:href="#DejaVuSans-35"/>
       <use xlink:href="#DejaVuSans-31" transform="translate(63.623047 0)"/>
       <use xlink:href="#DejaVuSans-34" transform="translate(127.246094 0)"/>
      </g>
     </g>
    </g>
    <g id="xtick_5">
     <g id="line2d_5">
      <g>
       <use xlink:href="#mf9eddccf43" x="224.95875" y="275.04" style="stroke: #000000; stroke-width: 0.8"/>
      </g>
     </g>
     <g id="text_5">
      <!-- 515 -->
      <g transform="translate(226.890313 295.40125) rotate(-90) scale(0.07 -0.07)">
       <use xlink:href="#DejaVuSans-35"/>
       <use xlink:href="#DejaVuSans-31" transform="translate(63.623047 0)"/>
       <use xlink:href="#DejaVuSans-35" transform="translate(127.246094 0)"/>
      </g>
     </g>
    </g>
    <g id="text_6">
     <!-- Verso -->
     <g transform="translate(157.072734 306.239844) scale(0.09 -0.09)">
      <defs>
       <path id="DejaVuSans-56" d="M 1831 0 
L 50 4666 
L 709 4666 
L 2188 738 
L 3669 4666 
L 4325 4666 
L 2547 0 
L 1831 0 
z
" transform="scale(0.015625)"/>
       <path id="DejaVuSans-65" d="M 3597 1894 
L 3597 1613 
L 953 1613 
Q 991 1019 1311 708 
Q 1631 397 2203 397 
Q 2534 397 2845 478 
Q 3156 559 3463 722 
L 3463 178 
Q 3153 47 2828 -22 
Q 2503 -91 2169 -91 
Q 1331 -91 842 396 
Q 353 884 353 1716 
Q 353 2575 817 3079 
Q 1281 3584 2069 3584 
Q 2775 3584 3186 3129 
Q 3597 2675 3597 1894 
z
M 3022 2063 
Q 3016 2534 2758 2815 
Q 2500 3097 2075 3097 
Q 1594 3097 1305 2825 
Q 1016 2553 972 2059 
L 3022 2063 
z
" transform="scale(0.015625)"/>
       <path id="DejaVuSans-72" d="M 2631 2963 
Q 2534 3019 2420 3045 
Q 2306 3072 2169 3072 
Q 1681 3072 1420 2755 
Q 1159 2438 1159 1844 
L 1159 0 
L 581 0 
L 581 3500 
L 1159 3500 
L 1159 2956 
Q 1341 3275 1631 3429 
Q 1922 3584 2338 3584 
Q 2397 3584 2469 3576 
Q 2541 3569 2628 3553 
L 2631 2963 
z
" transform="scale(0.015625)"/>
       <path id="DejaVuSans-73" d="M 2834 3397 
L 2834 2853 
Q 2591 2978 2328 3040 
Q 2066 3103 1784 3103 
Q 1356 3103 1142 2972 
Q 928 2841 928 2578 
Q 928 2378 1081 2264 
Q 1234 2150 1697 2047 
L 1894 2003 
Q 2506 1872 2764 1633 
Q 3022 1394 3022 966 
Q 3022 478 2636 193 
Q 2250 -91 1575 -91 
Q 1294 -91 989 -36 
Q 684 19 347 128 
L 347 722 
Q 666 556 975 473 
Q 1284 391 1588 391 
Q 1994 391 2212 530 
Q 2431 669 2431 922 
Q 2431 1156 2273 1281 
Q 2116 1406 1581 1522 
L 1381 1569 
Q 847 1681 609 1914 
Q 372 2147 372 2553 
Q 372 3047 722 3315 
Q 1072 3584 1716 3584 
Q 2034 3584 2315 3537 
Q 2597 3491 2834 3397 
z
" transform="scale(0.015625)"/>
       <path id="DejaVuSans-6f" d="M 1959 3097 
Q 1497 3097 1228 2736 
Q 959 2375 959 1747 
Q 959 1119 1226 758 
Q 1494 397 1959 397 
Q 2419 397 2687 759 
Q 2956 1122 2956 1747 
Q 2956 2369 2687 2733 
Q 2419 3097 1959 3097 
z
M 1959 3584 
Q 2709 3584 3137 3096 
Q 3566 2609 3566 1747 
Q 3566 888 3137 398 
Q 2709 -91 1959 -91 
Q 1206 -91 779 398 
Q 353 888 353 1747 
Q 353 2609 779 3096 
Q 1206 3584 1959 3584 
z
" transform="scale(0.015625)"/>
      </defs>
      <use xlink:href="#DejaVuSans-56"/>
      <use xlink:href="#DejaVuSans-65" transform="translate(60.658203 0)"/>
      <use xlink:href="#DejaVuSans-72" transform="translate(122.181641 0)"/>
      <use xlink:href="#DejaVuSans-73" transform="translate(163.294922 0)"/>
      <use xlink:href="#DejaVuSans-6f" transform="translate(215.394531 0)"/>
     </g>
    </g>
   </g>
   <g id="matplotlib.axis_2">
    <g id="ytick_1">
     <g id="line2d_6">
      <defs>
       <path id="m557916db4f" d="M 0 0 
L -3.5 0 
" style="stroke: #000000; stroke-width: 0.8"/>
      </defs>
      <g>
       <use xlink:href="#m557916db4f" x="100.21875" y="67.14" style="stroke: #000000; stroke-width: 0.8"/>
      </g>
     </g>
     <g id="text_7">
      <!-- AB -->
      <g transform="translate(80.887344 69.623437) scale(0.09 -0.09)">
       <defs>
        <path id="DejaVuSans-41" d="M 2188 4044 
L 1331 1722 
L 3047 1722 
L 2188 4044 
z
M 1831 4666 
L 2547 4666 
L 4325 0 
L 3669 0 
L 3244 1197 
L 1141 1197 
L 716 0 
L 50 0 
L 1831 4666 
z
" transform="scale(0.015625)"/>
        <path id="DejaVuSans-42" d="M 1259 2228 
L 1259 519 
L 2272 519 
Q 2781 519 3026 730 
Q 3272 941 3272 1375 
Q 3272 1813 3026 2020 
Q 2781 2228 2272 2228 
L 1259 2228 
z
M 1259 4147 
L 1259 2741 
L 2194 2741 
Q 2656 2741 2882 2914 
Q 3109 3088 3109 3444 
Q 3109 3797 2882 3972 
Q 2656 4147 2194 4147 
L 1259 4147 
z
M 628 4666 
L 2241 4666 
Q 2963 4666 3353 4366 
Q 3744 4066 3744 3513 
Q 3744 3084 3544 2831 
Q 3344 2578 2956 2516 
Q 3422 2416 3680 2098 
Q 3938 1781 3938 1306 
Q 3938 681 3513 340 
Q 3088 0 2303 0 
L 628 0 
L 628 4666 
z
" transform="scale(0.015625)"/>
       </defs>
       <use xlink:href="#DejaVuSans-41"/>
       <use xlink:href="#DejaVuSans-42" transform="translate(68.408203 0)"/>
      </g>
     </g>
    </g>
    <g id="ytick_2">
     <g id="line2d_7">
      <g>
       <use xlink:href="#m557916db4f" x="100.21875" y="94.86" style="stroke: #000000; stroke-width: 0.8"/>
      </g>
     </g>
     <g id="text_8">
      <!-- AEP -->
      <g transform="translate(75.948594 97.343437) scale(0.09 -0.09)">
       <defs>
        <path id="DejaVuSans-45" d="M 628 4666 
L 3578 4666 
L 3578 4134 
L 1259 4134 
L 1259 2753 
L 3481 2753 
L 3481 2222 
L 1259 2222 
L 1259 531 
L 3634 531 
L 3634 0 
L 628 0 
L 628 4666 
z
" transform="scale(0.015625)"/>
        <path id="DejaVuSans-50" d="M 1259 4147 
L 1259 2394 
L 2053 2394 
Q 2494 2394 2734 2622 
Q 2975 2850 2975 3272 
Q 2975 3691 2734 3919 
Q 2494 4147 2053 4147 
L 1259 4147 
z
M 628 4666 
L 2053 4666 
Q 2838 4666 3239 4311 
Q 3641 3956 3641 3272 
Q 3641 2581 3239 2228 
Q 2838 1875 2053 1875 
L 1259 1875 
L 1259 0 
L 628 0 
L 628 4666 
z
" transform="scale(0.015625)"/>
       </defs>
       <use xlink:href="#DejaVuSans-41"/>
       <use xlink:href="#DejaVuSans-45" transform="translate(68.408203 0)"/>
       <use xlink:href="#DejaVuSans-50" transform="translate(131.591797 0)"/>
      </g>
     </g>
    </g>
    <g id="ytick_3">
     <g id="line2d_8">
      <g>
       <use xlink:href="#m557916db4f" x="100.21875" y="122.58" style="stroke: #000000; stroke-width: 0.8"/>
      </g>
     </g>
     <g id="text_9">
      <!-- JL -->
      <g transform="translate(85.549063 125.063437) scale(0.09 -0.09)">
       <defs>
        <path id="DejaVuSans-4a" d="M 628 4666 
L 1259 4666 
L 1259 325 
Q 1259 -519 939 -900 
Q 619 -1281 -91 -1281 
L -331 -1281 
L -331 -750 
L -134 -750 
Q 284 -750 456 -515 
Q 628 -281 628 325 
L 628 4666 
z
" transform="scale(0.015625)"/>
        <path id="DejaVuSans-4c" d="M 628 4666 
L 1259 4666 
L 1259 531 
L 3531 531 
L 3531 0 
L 628 0 
L 628 4666 
z
" transform="scale(0.015625)"/>
       </defs>
       <use xlink:href="#DejaVuSans-4a"/>
       <use xlink:href="#DejaVuSans-4c" transform="translate(29.492188 0)"/>
      </g>
     </g>
    </g>
    <g id="ytick_4">
     <g id="line2d_9">
      <g>
       <use xlink:href="#m557916db4f" x="100.21875" y="150.3" style="stroke: #000000; stroke-width: 0.8"/>
      </g>
     </g>
     <g id="text_10">
      <!-- LLA -->
      <g transform="translate(76.830313 152.783437) scale(0.09 -0.09)">
       <use xlink:href="#DejaVuSans-4c"/>
       <use xlink:href="#DejaVuSans-4c" transform="translate(55.712891 0)"/>
       <use xlink:href="#DejaVuSans-41" transform="translate(113.675781 0)"/>
      </g>
     </g>
    </g>
    <g id="ytick_5">
     <g id="line2d_10">
      <g>
       <use xlink:href="#m557916db4f" x="100.21875" y="178.02" style="stroke: #000000; stroke-width: 0.8"/>
      </g>
     </g>
     <g id="text_11">
      <!-- MAC -->
      <g transform="translate(73.169844 180.503437) scale(0.09 -0.09)">
       <defs>
        <path id="DejaVuSans-4d" d="M 628 4666 
L 1569 4666 
L 2759 1491 
L 3956 4666 
L 4897 4666 
L 4897 0 
L 4281 0 
L 4281 4097 
L 3078 897 
L 2444 897 
L 1241 4097 
L 1241 0 
L 628 0 
L 628 4666 
z
" transform="scale(0.015625)"/>
        <path id="DejaVuSans-43" d="M 4122 4306 
L 4122 3641 
Q 3803 3938 3442 4084 
Q 3081 4231 2675 4231 
Q 1875 4231 1450 3742 
Q 1025 3253 1025 2328 
Q 1025 1406 1450 917 
Q 1875 428 2675 428 
Q 3081 428 3442 575 
Q 3803 722 4122 1019 
L 4122 359 
Q 3791 134 3420 21 
Q 3050 -91 2638 -91 
Q 1578 -91 968 557 
Q 359 1206 359 2328 
Q 359 3453 968 4101 
Q 1578 4750 2638 4750 
Q 3056 4750 3426 4639 
Q 3797 4528 4122 4306 
z
" transform="scale(0.015625)"/>
       </defs>
       <use xlink:href="#DejaVuSans-4d"/>
       <use xlink:href="#DejaVuSans-41" transform="translate(86.279297 0)"/>
       <use xlink:href="#DejaVuSans-43" transform="translate(152.9375 0)"/>
      </g>
     </g>
    </g>
    <g id="ytick_6">
     <g id="line2d_11">
      <g>
       <use xlink:href="#m557916db4f" x="100.21875" y="205.74" style="stroke: #000000; stroke-width: 0.8"/>
      </g>
     </g>
     <g id="text_12">
      <!-- NPC -->
      <g transform="translate(74.774375 208.223437) scale(0.09 -0.09)">
       <defs>
        <path id="DejaVuSans-4e" d="M 628 4666 
L 1478 4666 
L 3547 763 
L 3547 4666 
L 4159 4666 
L 4159 0 
L 3309 0 
L 1241 3903 
L 1241 0 
L 628 0 
L 628 4666 
z
" transform="scale(0.015625)"/>
       </defs>
       <use xlink:href="#DejaVuSans-4e"/>
       <use xlink:href="#DejaVuSans-50" transform="translate(74.804688 0)"/>
       <use xlink:href="#DejaVuSans-43" transform="translate(135.107422 0)"/>
      </g>
     </g>
    </g>
    <g id="ytick_7">
     <g id="line2d_12">
      <g>
       <use xlink:href="#m557916db4f" x="100.21875" y="233.46" style="stroke: #000000; stroke-width: 0.8"/>
      </g>
     </g>
     <g id="text_13">
      <!-- PF -->
      <g transform="translate(82.615625 235.943437) scale(0.09 -0.09)">
       <defs>
        <path id="DejaVuSans-46" d="M 628 4666 
L 3309 4666 
L 3309 4134 
L 1259 4134 
L 1259 2759 
L 3109 2759 
L 3109 2228 
L 1259 2228 
L 1259 0 
L 628 0 
L 628 4666 
z
" transform="scale(0.015625)"/>
       </defs>
       <use xlink:href="#DejaVuSans-50"/>
       <use xlink:href="#DejaVuSans-46" transform="translate(60.302734 0)"/>
      </g>
     </g>
    </g>
    <g id="ytick_8">
     <g id="line2d_13">
      <g>
       <use xlink:href="#m557916db4f" x="100.21875" y="261.18" style="stroke: #000000; stroke-width: 0.8"/>
      </g>
     </g>
     <g id="text_14">
      <!-- RBN -->
      <g transform="translate(74.057188 263.663437) scale(0.09 -0.09)">
       <defs>
        <path id="DejaVuSans-52" d="M 2841 2188 
Q 3044 2119 3236 1894 
Q 3428 1669 3622 1275 
L 4263 0 
L 3584 0 
L 2988 1197 
Q 2756 1666 2539 1819 
Q 2322 1972 1947 1972 
L 1259 1972 
L 1259 0 
L 628 0 
L 628 4666 
L 2053 4666 
Q 2853 4666 3247 4331 
Q 3641 3997 3641 3322 
Q 3641 2881 3436 2590 
Q 3231 2300 2841 2188 
z
M 1259 4147 
L 1259 2491 
L 2053 2491 
Q 2509 2491 2742 2702 
Q 2975 2913 2975 3322 
Q 2975 3731 2742 3939 
Q 2509 4147 2053 4147 
L 1259 4147 
z
" transform="scale(0.015625)"/>
       </defs>
       <use xlink:href="#DejaVuSans-52"/>
       <use xlink:href="#DejaVuSans-42" transform="translate(69.482422 0)"/>
       <use xlink:href="#DejaVuSans-4e" transform="translate(138.085938 0)"/>
      </g>
     </g>
    </g>
   </g>
   <g id="text_15">
    <!-- Símil de Filomena (vv. 511–515) -->
    <g transform="translate(70.897734 47.28) scale(0.11 -0.11)">
     <defs>
      <path id="DejaVuSans-Bold-53" d="M 3834 4519 
L 3834 3531 
Q 3450 3703 3084 3790 
Q 2719 3878 2394 3878 
Q 1963 3878 1756 3759 
Q 1550 3641 1550 3391 
Q 1550 3203 1689 3098 
Q 1828 2994 2194 2919 
L 2706 2816 
Q 3484 2659 3812 2340 
Q 4141 2022 4141 1434 
Q 4141 663 3683 286 
Q 3225 -91 2284 -91 
Q 1841 -91 1394 -6 
Q 947 78 500 244 
L 500 1259 
Q 947 1022 1364 901 
Q 1781 781 2169 781 
Q 2563 781 2772 912 
Q 2981 1044 2981 1288 
Q 2981 1506 2839 1625 
Q 2697 1744 2272 1838 
L 1806 1941 
Q 1106 2091 782 2419 
Q 459 2747 459 3303 
Q 459 4000 909 4375 
Q 1359 4750 2203 4750 
Q 2588 4750 2994 4692 
Q 3400 4634 3834 4519 
z
" transform="scale(0.015625)"/>
      <path id="DejaVuSans-Bold-ed" d="M 538 3500 
L 1656 3500 
L 1656 0 
L 538 0 
L 538 3500 
z
M 1590 5119 
L 2474 5119 
L 1321 3944 
L 709 3944 
L 1590 5119 
z
" transform="scale(0.015625)"/>
      <path id="DejaVuSans-Bold-6d" d="M 3781 2919 
Q 3994 3244 4286 3414 
Q 4578 3584 4928 3584 
Q 5531 3584 5847 3212 
Q 6163 2841 6163 2131 
L 6163 0 
L 5038 0 
L 5038 1825 
Q 5041 1866 5042 1909 
Q 5044 1953 5044 2034 
Q 5044 2406 4934 2573 
Q 4825 2741 4581 2741 
Q 4263 2741 4089 2478 
Q 3916 2216 3909 1719 
L 3909 0 
L 2784 0 
L 2784 1825 
Q 2784 2406 2684 2573 
Q 2584 2741 2328 2741 
Q 2006 2741 1831 2477 
Q 1656 2213 1656 1722 
L 1656 0 
L 531 0 
L 531 3500 
L 1656 3500 
L 1656 2988 
Q 1863 3284 2130 3434 
Q 2397 3584 2719 3584 
Q 3081 3584 3359 3409 
Q 3638 3234 3781 2919 
z
" transform="scale(0.015625)"/>
      <path id="DejaVuSans-Bold-69" d="M 538 3500 
L 1656 3500 
L 1656 0 
L 538 0 
L 538 3500 
z
M 538 4863 
L 1656 4863 
L 1656 3950 
L 538 3950 
L 538 4863 
z
" transform="scale(0.015625)"/>
      <path id="DejaVuSans-Bold-6c" d="M 538 4863 
L 1656 4863 
L 1656 0 
L 538 0 
L 538 4863 
z
" transform="scale(0.015625)"/>
      <path id="DejaVuSans-Bold-20" transform="scale(0.015625)"/>
      <path id="DejaVuSans-Bold-64" d="M 2919 2988 
L 2919 4863 
L 4044 4863 
L 4044 0 
L 2919 0 
L 2919 506 
Q 2688 197 2409 53 
Q 2131 -91 1766 -91 
Q 1119 -91 703 423 
Q 288 938 288 1747 
Q 288 2556 703 3070 
Q 1119 3584 1766 3584 
Q 2128 3584 2408 3439 
Q 2688 3294 2919 2988 
z
M 2181 722 
Q 2541 722 2730 984 
Q 2919 1247 2919 1747 
Q 2919 2247 2730 2509 
Q 2541 2772 2181 2772 
Q 1825 2772 1636 2509 
Q 1447 2247 1447 1747 
Q 1447 1247 1636 984 
Q 1825 722 2181 722 
z
" transform="scale(0.015625)"/>
      <path id="DejaVuSans-Bold-65" d="M 4031 1759 
L 4031 1441 
L 1416 1441 
Q 1456 1047 1700 850 
Q 1944 653 2381 653 
Q 2734 653 3104 758 
Q 3475 863 3866 1075 
L 3866 213 
Q 3469 63 3072 -14 
Q 2675 -91 2278 -91 
Q 1328 -91 801 392 
Q 275 875 275 1747 
Q 275 2603 792 3093 
Q 1309 3584 2216 3584 
Q 3041 3584 3536 3087 
Q 4031 2591 4031 1759 
z
M 2881 2131 
Q 2881 2450 2695 2645 
Q 2509 2841 2209 2841 
Q 1884 2841 1681 2658 
Q 1478 2475 1428 2131 
L 2881 2131 
z
" transform="scale(0.015625)"/>
      <path id="DejaVuSans-Bold-46" d="M 588 4666 
L 3834 4666 
L 3834 3756 
L 1791 3756 
L 1791 2888 
L 3713 2888 
L 3713 1978 
L 1791 1978 
L 1791 0 
L 588 0 
L 588 4666 
z
" transform="scale(0.015625)"/>
      <path id="DejaVuSans-Bold-6f" d="M 2203 2784 
Q 1831 2784 1636 2517 
Q 1441 2250 1441 1747 
Q 1441 1244 1636 976 
Q 1831 709 2203 709 
Q 2569 709 2762 976 
Q 2956 1244 2956 1747 
Q 2956 2250 2762 2517 
Q 2569 2784 2203 2784 
z
M 2203 3584 
Q 3106 3584 3614 3096 
Q 4122 2609 4122 1747 
Q 4122 884 3614 396 
Q 3106 -91 2203 -91 
Q 1297 -91 786 396 
Q 275 884 275 1747 
Q 275 2609 786 3096 
Q 1297 3584 2203 3584 
z
" transform="scale(0.015625)"/>
      <path id="DejaVuSans-Bold-6e" d="M 4056 2131 
L 4056 0 
L 2931 0 
L 2931 347 
L 2931 1631 
Q 2931 2084 2911 2256 
Q 2891 2428 2841 2509 
Q 2775 2619 2662 2680 
Q 2550 2741 2406 2741 
Q 2056 2741 1856 2470 
Q 1656 2200 1656 1722 
L 1656 0 
L 538 0 
L 538 3500 
L 1656 3500 
L 1656 2988 
Q 1909 3294 2193 3439 
Q 2478 3584 2822 3584 
Q 3428 3584 3742 3212 
Q 4056 2841 4056 2131 
z
" transform="scale(0.015625)"/>
      <path id="DejaVuSans-Bold-61" d="M 2106 1575 
Q 1756 1575 1579 1456 
Q 1403 1338 1403 1106 
Q 1403 894 1545 773 
Q 1688 653 1941 653 
Q 2256 653 2472 879 
Q 2688 1106 2688 1447 
L 2688 1575 
L 2106 1575 
z
M 3816 1997 
L 3816 0 
L 2688 0 
L 2688 519 
Q 2463 200 2181 54 
Q 1900 -91 1497 -91 
Q 953 -91 614 226 
Q 275 544 275 1050 
Q 275 1666 698 1953 
Q 1122 2241 2028 2241 
L 2688 2241 
L 2688 2328 
Q 2688 2594 2478 2717 
Q 2269 2841 1825 2841 
Q 1466 2841 1156 2769 
Q 847 2697 581 2553 
L 581 3406 
Q 941 3494 1303 3539 
Q 1666 3584 2028 3584 
Q 2975 3584 3395 3211 
Q 3816 2838 3816 1997 
z
" transform="scale(0.015625)"/>
      <path id="DejaVuSans-Bold-28" d="M 2413 -844 
L 1484 -844 
Q 1006 -72 778 623 
Q 550 1319 550 2003 
Q 550 2688 779 3389 
Q 1009 4091 1484 4856 
L 2413 4856 
Q 2013 4116 1813 3408 
Q 1613 2700 1613 2009 
Q 1613 1319 1811 609 
Q 2009 -100 2413 -844 
z
" transform="scale(0.015625)"/>
      <path id="DejaVuSans-Bold-76" d="M 97 3500 
L 1216 3500 
L 2088 1081 
L 2956 3500 
L 4078 3500 
L 2700 0 
L 1472 0 
L 97 3500 
z
" transform="scale(0.015625)"/>
      <path id="DejaVuSans-Bold-2e" d="M 653 1209 
L 1778 1209 
L 1778 0 
L 653 0 
L 653 1209 
z
" transform="scale(0.015625)"/>
      <path id="DejaVuSans-Bold-35" d="M 678 4666 
L 3669 4666 
L 3669 3781 
L 1638 3781 
L 1638 3059 
Q 1775 3097 1914 3117 
Q 2053 3138 2203 3138 
Q 3056 3138 3531 2711 
Q 4006 2284 4006 1522 
Q 4006 766 3489 337 
Q 2972 -91 2053 -91 
Q 1656 -91 1267 -14 
Q 878 63 494 219 
L 494 1166 
Q 875 947 1217 837 
Q 1559 728 1863 728 
Q 2300 728 2551 942 
Q 2803 1156 2803 1522 
Q 2803 1891 2551 2103 
Q 2300 2316 1863 2316 
Q 1603 2316 1309 2248 
Q 1016 2181 678 2041 
L 678 4666 
z
" transform="scale(0.015625)"/>
      <path id="DejaVuSans-Bold-31" d="M 750 831 
L 1813 831 
L 1813 3847 
L 722 3622 
L 722 4441 
L 1806 4666 
L 2950 4666 
L 2950 831 
L 4013 831 
L 4013 0 
L 750 0 
L 750 831 
z
" transform="scale(0.015625)"/>
      <path id="DejaVuSans-Bold-2013" d="M 344 2156 
L 2856 2156 
L 2856 1350 
L 344 1350 
L 344 2156 
z
" transform="scale(0.015625)"/>
      <path id="DejaVuSans-Bold-29" d="M 513 -844 
Q 913 -100 1113 609 
Q 1313 1319 1313 2009 
Q 1313 2700 1113 3408 
Q 913 4116 513 4856 
L 1441 4856 
Q 1916 4091 2145 3389 
Q 2375 2688 2375 2003 
Q 2375 1319 2147 623 
Q 1919 -72 1441 -844 
L 513 -844 
z
" transform="scale(0.015625)"/>
     </defs>
     <use xlink:href="#DejaVuSans-Bold-53"/>
     <use xlink:href="#DejaVuSans-Bold-ed" transform="translate(72.021484 0)"/>
     <use xlink:href="#DejaVuSans-Bold-6d" transform="translate(106.298828 0)"/>
     <use xlink:href="#DejaVuSans-Bold-69" transform="translate(210.498047 0)"/>
     <use xlink:href="#DejaVuSans-Bold-6c" transform="translate(244.775391 0)"/>
     <use xlink:href="#DejaVuSans-Bold-20" transform="translate(279.052734 0)"/>
     <use xlink:href="#DejaVuSans-Bold-64" transform="translate(313.867188 0)"/>
     <use xlink:href="#DejaVuSans-Bold-65" transform="translate(385.449219 0)"/>
     <use xlink:href="#DejaVuSans-Bold-20" transform="translate(453.271484 0)"/>
     <use xlink:href="#DejaVuSans-Bold-46" transform="translate(488.085938 0)"/>
     <use xlink:href="#DejaVuSans-Bold-69" transform="translate(556.396484 0)"/>
     <use xlink:href="#DejaVuSans-Bold-6c" transform="translate(590.673828 0)"/>
     <use xlink:href="#DejaVuSans-Bold-6f" transform="translate(624.951172 0)"/>
     <use xlink:href="#DejaVuSans-Bold-6d" transform="translate(693.652344 0)"/>
     <use xlink:href="#DejaVuSans-Bold-65" transform="translate(797.851562 0)"/>
     <use xlink:href="#DejaVuSans-Bold-6e" transform="translate(865.673828 0)"/>
     <use xlink:href="#DejaVuSans-Bold-61" transform="translate(936.865234 0)"/>
     <use xlink:href="#DejaVuSans-Bold-20" transform="translate(1004.345703 0)"/>
     <use xlink:href="#DejaVuSans-Bold-28" transform="translate(1039.160156 0)"/>
     <use xlink:href="#DejaVuSans-Bold-76" transform="translate(1084.863281 0)"/>
     <use xlink:href="#DejaVuSans-Bold-76" transform="translate(1150.048828 0)"/>
     <use xlink:href="#DejaVuSans-Bold-2e" transform="translate(1207.109375 0)"/>
     <use xlink:href="#DejaVuSans-Bold-20" transform="translate(1245.097656 0)"/>
     <use xlink:href="#DejaVuSans-Bold-35" transform="translate(1279.912109 0)"/>
     <use xlink:href="#DejaVuSans-Bold-31" transform="translate(1349.492188 0)"/>
     <use xlink:href="#DejaVuSans-Bold-31" transform="translate(1419.072266 0)"/>
     <use xlink:href="#DejaVuSans-Bold-2013" transform="translate(1488.652344 0)"/>
     <use xlink:href="#DejaVuSans-Bold-35" transform="translate(1538.652344 0)"/>
     <use xlink:href="#DejaVuSans-Bold-31" transform="translate(1608.232422 0)"/>
     <use xlink:href="#DejaVuSans-Bold-35" transform="translate(1677.8125 0)"/>
     <use xlink:href="#DejaVuSans-Bold-29" transform="translate(1747.392578 0)"/>
    </g>
   </g>
  </g>
  <g id="text_16">
   <!-- Fidelidad por verso y traducción (@cert del ⟨l⟩) -->
   <g transform="translate(7.2 16.798125) scale(0.12 -0.12)">
    <defs>
     <path id="DejaVuSans-Bold-70" d="M 1656 506 
L 1656 -1331 
L 538 -1331 
L 538 3500 
L 1656 3500 
L 1656 2988 
Q 1888 3294 2169 3439 
Q 2450 3584 2816 3584 
Q 3463 3584 3878 3070 
Q 4294 2556 4294 1747 
Q 4294 938 3878 423 
Q 3463 -91 2816 -91 
Q 2450 -91 2169 54 
Q 1888 200 1656 506 
z
M 2400 2772 
Q 2041 2772 1848 2508 
Q 1656 2244 1656 1747 
Q 1656 1250 1848 986 
Q 2041 722 2400 722 
Q 2759 722 2948 984 
Q 3138 1247 3138 1747 
Q 3138 2247 2948 2509 
Q 2759 2772 2400 2772 
z
" transform="scale(0.015625)"/>
     <path id="DejaVuSans-Bold-72" d="M 3138 2547 
Q 2991 2616 2845 2648 
Q 2700 2681 2553 2681 
Q 2122 2681 1889 2404 
Q 1656 2128 1656 1613 
L 1656 0 
L 538 0 
L 538 3500 
L 1656 3500 
L 1656 2925 
Q 1872 3269 2151 3426 
Q 2431 3584 2822 3584 
Q 2878 3584 2943 3579 
Q 3009 3575 3134 3559 
L 3138 2547 
z
" transform="scale(0.015625)"/>
     <path id="DejaVuSans-Bold-73" d="M 3272 3391 
L 3272 2541 
Q 2913 2691 2578 2766 
Q 2244 2841 1947 2841 
Q 1628 2841 1473 2761 
Q 1319 2681 1319 2516 
Q 1319 2381 1436 2309 
Q 1553 2238 1856 2203 
L 2053 2175 
Q 2913 2066 3209 1816 
Q 3506 1566 3506 1031 
Q 3506 472 3093 190 
Q 2681 -91 1863 -91 
Q 1516 -91 1145 -36 
Q 775 19 384 128 
L 384 978 
Q 719 816 1070 734 
Q 1422 653 1784 653 
Q 2113 653 2278 743 
Q 2444 834 2444 1013 
Q 2444 1163 2330 1236 
Q 2216 1309 1875 1350 
L 1678 1375 
Q 931 1469 631 1722 
Q 331 1975 331 2491 
Q 331 3047 712 3315 
Q 1094 3584 1881 3584 
Q 2191 3584 2531 3537 
Q 2872 3491 3272 3391 
z
" transform="scale(0.015625)"/>
     <path id="DejaVuSans-Bold-79" d="M 78 3500 
L 1197 3500 
L 2138 1125 
L 2938 3500 
L 4056 3500 
L 2584 -331 
Q 2363 -916 2067 -1148 
Q 1772 -1381 1288 -1381 
L 641 -1381 
L 641 -647 
L 991 -647 
Q 1275 -647 1404 -556 
Q 1534 -466 1606 -231 
L 1638 -134 
L 78 3500 
z
" transform="scale(0.015625)"/>
     <path id="DejaVuSans-Bold-74" d="M 1759 4494 
L 1759 3500 
L 2913 3500 
L 2913 2700 
L 1759 2700 
L 1759 1216 
Q 1759 972 1856 886 
Q 1953 800 2241 800 
L 2816 800 
L 2816 0 
L 1856 0 
Q 1194 0 917 276 
Q 641 553 641 1216 
L 641 2700 
L 84 2700 
L 84 3500 
L 641 3500 
L 641 4494 
L 1759 4494 
z
" transform="scale(0.015625)"/>
     <path id="DejaVuSans-Bold-75" d="M 500 1363 
L 500 3500 
L 1625 3500 
L 1625 3150 
Q 1625 2866 1622 2436 
Q 1619 2006 1619 1863 
Q 1619 1441 1641 1255 
Q 1663 1069 1716 984 
Q 1784 875 1895 815 
Q 2006 756 2150 756 
Q 2500 756 2700 1025 
Q 2900 1294 2900 1772 
L 2900 3500 
L 4019 3500 
L 4019 0 
L 2900 0 
L 2900 506 
Q 2647 200 2364 54 
Q 2081 -91 1741 -91 
Q 1134 -91 817 281 
Q 500 653 500 1363 
z
" transform="scale(0.015625)"/>
     <path id="DejaVuSans-Bold-63" d="M 3366 3391 
L 3366 2478 
Q 3138 2634 2908 2709 
Q 2678 2784 2431 2784 
Q 1963 2784 1702 2511 
Q 1441 2238 1441 1747 
Q 1441 1256 1702 982 
Q 1963 709 2431 709 
Q 2694 709 2930 787 
Q 3166 866 3366 1019 
L 3366 103 
Q 3103 6 2833 -42 
Q 2563 -91 2291 -91 
Q 1344 -91 809 395 
Q 275 881 275 1747 
Q 275 2613 809 3098 
Q 1344 3584 2291 3584 
Q 2566 3584 2833 3536 
Q 3100 3488 3366 3391 
z
" transform="scale(0.015625)"/>
     <path id="DejaVuSans-Bold-f3" d="M 2203 2784 
Q 1831 2784 1636 2517 
Q 1441 2250 1441 1747 
Q 1441 1244 1636 976 
Q 1831 709 2203 709 
Q 2569 709 2762 976 
Q 2956 1244 2956 1747 
Q 2956 2250 2762 2517 
Q 2569 2784 2203 2784 
z
M 2203 3584 
Q 3106 3584 3614 3096 
Q 4122 2609 4122 1747 
Q 4122 884 3614 396 
Q 3106 -91 2203 -91 
Q 1297 -91 786 396 
Q 275 884 275 1747 
Q 275 2609 786 3096 
Q 1297 3584 2203 3584 
z
M 2694 5119 
L 3578 5119 
L 2425 3944 
L 1813 3944 
L 2694 5119 
z
" transform="scale(0.015625)"/>
     <path id="DejaVuSans-Bold-40" d="M 2597 1684 
Q 2597 1300 2761 1078 
Q 2925 856 3206 856 
Q 3484 856 3650 1079 
Q 3816 1303 3816 1684 
Q 3816 2063 3648 2283 
Q 3481 2503 3200 2503 
Q 2925 2503 2761 2283 
Q 2597 2063 2597 1684 
z
M 3878 744 
Q 3784 522 3576 398 
Q 3369 275 3091 275 
Q 2553 275 2217 664 
Q 1881 1053 1881 1678 
Q 1881 2303 2218 2693 
Q 2556 3084 3091 3084 
Q 3369 3084 3576 2959 
Q 3784 2834 3878 2613 
L 3878 3022 
L 4531 3022 
L 4531 856 
Q 4919 916 5141 1230 
Q 5363 1544 5363 2034 
Q 5363 2347 5272 2620 
Q 5181 2894 4997 3122 
Q 4700 3503 4254 3709 
Q 3809 3916 3291 3916 
Q 2928 3916 2597 3820 
Q 2266 3725 1984 3541 
Q 1522 3234 1264 2748 
Q 1006 2263 1006 1697 
Q 1006 1231 1173 823 
Q 1341 416 1656 103 
Q 1969 -203 2373 -364 
Q 2778 -525 3238 -525 
Q 3631 -525 4025 -378 
Q 4419 -231 4697 19 
L 5031 -488 
Q 4641 -791 4180 -952 
Q 3719 -1113 3244 -1113 
Q 2666 -1113 2153 -908 
Q 1641 -703 1241 -313 
Q 841 78 631 592 
Q 422 1106 422 1697 
Q 422 2266 634 2781 
Q 847 3297 1241 3688 
Q 1634 4075 2157 4287 
Q 2681 4500 3244 4500 
Q 3944 4500 4516 4233 
Q 5088 3966 5472 3463 
Q 5706 3156 5826 2798 
Q 5947 2441 5947 2047 
Q 5947 1200 5437 731 
Q 4928 263 4000 263 
L 3878 263 
L 3878 744 
z
" transform="scale(0.015625)"/>
     <path id="DejaVuSans-Bold-27e8" d="M 672 2006 
L 1563 4856 
L 2413 4856 
L 1519 2006 
L 2413 -844 
L 1563 -844 
L 672 2006 
z
" transform="scale(0.015625)"/>
     <path id="DejaVuSans-Bold-27e9" d="M 2253 2006 
L 1363 -844 
L 513 -844 
L 1406 2006 
L 513 4856 
L 1363 4856 
L 2253 2006 
z
" transform="scale(0.015625)"/>
    </defs>
    <use xlink:href="#DejaVuSans-Bold-46"/>
    <use xlink:href="#DejaVuSans-Bold-69" transform="translate(68.310547 0)"/>
    <use xlink:href="#DejaVuSans-Bold-64" transform="translate(102.587891 0)"/>
    <use xlink:href="#DejaVuSans-Bold-65" transform="translate(174.169922 0)"/>
    <use xlink:href="#DejaVuSans-Bold-6c" transform="translate(241.992188 0)"/>
    <use xlink:href="#DejaVuSans-Bold-69" transform="translate(276.269531 0)"/>
    <use xlink:href="#DejaVuSans-Bold-64" transform="translate(310.546875 0)"/>
    <use xlink:href="#DejaVuSans-Bold-61" transform="translate(382.128906 0)"/>
    <use xlink:href="#DejaVuSans-Bold-64" transform="translate(449.609375 0)"/>
    <use xlink:href="#DejaVuSans-Bold-20" transform="translate(521.191406 0)"/>
    <use xlink:href="#DejaVuSans-Bold-70" transform="translate(556.005859 0)"/>
    <use xlink:href="#DejaVuSans-Bold-6f" transform="translate(627.587891 0)"/>
    <use xlink:href="#DejaVuSans-Bold-72" transform="translate(696.289062 0)"/>
    <use xlink:href="#DejaVuSans-Bold-20" transform="translate(745.605469 0)"/>
    <use xlink:href="#DejaVuSans-Bold-76" transform="translate(780.419922 0)"/>
    <use xlink:href="#DejaVuSans-Bold-65" transform="translate(845.605469 0)"/>
    <use xlink:href="#DejaVuSans-Bold-72" transform="translate(913.427734 0)"/>
    <use xlink:href="#DejaVuSans-Bold-73" transform="translate(962.744141 0)"/>
    <use xlink:href="#DejaVuSans-Bold-6f" transform="translate(1022.265625 0)"/>
    <use xlink:href="#DejaVuSans-Bold-20" transform="translate(1090.966797 0)"/>
    <use xlink:href="#DejaVuSans-Bold-79" transform="translate(1125.78125 0)"/>
    <use xlink:href="#DejaVuSans-Bold-20" transform="translate(1190.966797 0)"/>
    <use xlink:href="#DejaVuSans-Bold-74" transform="translate(1225.78125 0)"/>
    <use xlink:href="#DejaVuSans-Bold-72" transform="translate(1273.583984 0)"/>
    <use xlink:href="#DejaVuSans-Bold-61" transform="translate(1322.900391 0)"/>
    <use xlink:href="#DejaVuSans-Bold-64" transform="translate(1390.380859 0)"/>
    <use xlink:href="#DejaVuSans-Bold-75" transform="translate(1461.962891 0)"/>
    <use xlink:href="#DejaVuSans-Bold-63" transform="translate(1533.154297 0)"/>
    <use xlink:href="#DejaVuSans-Bold-63" transform="translate(1592.431641 0)"/>
    <use xlink:href="#DejaVuSans-Bold-69" transform="translate(1651.708984 0)"/>
    <use xlink:href="#DejaVuSans-Bold-f3" transform="translate(1685.986328 0)"/>
    <use xlink:href="#DejaVuSans-Bold-6e" transform="translate(1754.6875 0)"/>
    <use xlink:href="#DejaVuSans-Bold-20" transform="translate(1825.878906 0)"/>
    <use xlink:href="#DejaVuSans-Bold-28" transform="translate(1860.693359 0)"/>
    <use xlink:href="#DejaVuSans-Bold-40" transform="translate(1906.396484 0)"/>
    <use xlink:href="#DejaVuSans-Bold-63" transform="translate(2006.396484 0)"/>
    <use xlink:href="#DejaVuSans-Bold-65" transform="translate(2065.673828 0)"/>
    <use xlink:href="#DejaVuSans-Bold-72" transform="translate(2133.496094 0)"/>
    <use xlink:href="#DejaVuSans-Bold-74" transform="translate(2182.8125 0)"/>
    <use xlink:href="#DejaVuSans-Bold-20" transform="translate(2230.615234 0)"/>
    <use xlink:href="#DejaVuSans-Bold-64" transform="translate(2265.429688 0)"/>
    <use xlink:href="#DejaVuSans-Bold-65" transform="translate(2337.011719 0)"/>
    <use xlink:href="#DejaVuSans-Bold-6c" transform="translate(2404.833984 0)"/>
    <use xlink:href="#DejaVuSans-Bold-20" transform="translate(2439.111328 0)"/>
    <use xlink:href="#DejaVuSans-Bold-27e8" transform="translate(2473.925781 0)"/>
    <use xlink:href="#DejaVuSans-Bold-6c" transform="translate(2519.628906 0)"/>
    <use xlink:href="#DejaVuSans-Bold-27e9" transform="translate(2553.90625 0)"/>
    <use xlink:href="#DejaVuSans-Bold-29" transform="translate(2599.609375 0)"/>
   </g>
  </g>
  <g id="legend_1">
   <g id="patch_3">
    <path d="M 34.521562 348.588281 
L 52.521562 348.588281 
L 52.521562 342.288281 
L 34.521562 342.288281 
z
" style="fill: #c0392b; stroke: #c0392b; stroke-linejoin: miter"/>
   </g>
   <g id="text_17">
    <!-- low -->
    <g transform="translate(59.721562 348.588281) scale(0.09 -0.09)">
     <defs>
      <path id="DejaVuSans-6c" d="M 603 4863 
L 1178 4863 
L 1178 0 
L 603 0 
L 603 4863 
z
" transform="scale(0.015625)"/>
      <path id="DejaVuSans-77" d="M 269 3500 
L 844 3500 
L 1563 769 
L 2278 3500 
L 2956 3500 
L 3675 769 
L 4391 3500 
L 4966 3500 
L 4050 0 
L 3372 0 
L 2619 2869 
L 1863 0 
L 1184 0 
L 269 3500 
z
" transform="scale(0.015625)"/>
     </defs>
     <use xlink:href="#DejaVuSans-6c"/>
     <use xlink:href="#DejaVuSans-6f" transform="translate(27.783203 0)"/>
     <use xlink:href="#DejaVuSans-77" transform="translate(88.964844 0)"/>
    </g>
   </g>
   <g id="patch_4">
    <path d="M 93.089062 348.588281 
L 111.089062 348.588281 
L 111.089062 342.288281 
L 93.089062 342.288281 
z
" style="fill: #e67e22; stroke: #e67e22; stroke-linejoin: miter"/>
   </g>
   <g id="text_18">
    <!-- medium -->
    <g transform="translate(118.289062 348.588281) scale(0.09 -0.09)">
     <defs>
      <path id="DejaVuSans-6d" d="M 3328 2828 
Q 3544 3216 3844 3400 
Q 4144 3584 4550 3584 
Q 5097 3584 5394 3201 
Q 5691 2819 5691 2113 
L 5691 0 
L 5113 0 
L 5113 2094 
Q 5113 2597 4934 2840 
Q 4756 3084 4391 3084 
Q 3944 3084 3684 2787 
Q 3425 2491 3425 1978 
L 3425 0 
L 2847 0 
L 2847 2094 
Q 2847 2600 2669 2842 
Q 2491 3084 2119 3084 
Q 1678 3084 1418 2786 
Q 1159 2488 1159 1978 
L 1159 0 
L 581 0 
L 581 3500 
L 1159 3500 
L 1159 2956 
Q 1356 3278 1631 3431 
Q 1906 3584 2284 3584 
Q 2666 3584 2933 3390 
Q 3200 3197 3328 2828 
z
" transform="scale(0.015625)"/>
      <path id="DejaVuSans-64" d="M 2906 2969 
L 2906 4863 
L 3481 4863 
L 3481 0 
L 2906 0 
L 2906 525 
Q 2725 213 2448 61 
Q 2172 -91 1784 -91 
Q 1150 -91 751 415 
Q 353 922 353 1747 
Q 353 2572 751 3078 
Q 1150 3584 1784 3584 
Q 2172 3584 2448 3432 
Q 2725 3281 2906 2969 
z
M 947 1747 
Q 947 1113 1208 752 
Q 1469 391 1925 391 
Q 2381 391 2643 752 
Q 2906 1113 2906 1747 
Q 2906 2381 2643 2742 
Q 2381 3103 1925 3103 
Q 1469 3103 1208 2742 
Q 947 2381 947 1747 
z
" transform="scale(0.015625)"/>
      <path id="DejaVuSans-69" d="M 603 3500 
L 1178 3500 
L 1178 0 
L 603 0 
L 603 3500 
z
M 603 4863 
L 1178 4863 
L 1178 4134 
L 603 4134 
L 603 4863 
z
" transform="scale(0.015625)"/>
      <path id="DejaVuSans-75" d="M 544 1381 
L 544 3500 
L 1119 3500 
L 1119 1403 
Q 1119 906 1312 657 
Q 1506 409 1894 409 
Q 2359 409 2629 706 
Q 2900 1003 2900 1516 
L 2900 3500 
L 3475 3500 
L 3475 0 
L 2900 0 
L 2900 538 
Q 2691 219 2414 64 
Q 2138 -91 1772 -91 
Q 1169 -91 856 284 
Q 544 659 544 1381 
z
M 1991 3584 
L 1991 3584 
z
" transform="scale(0.015625)"/>
     </defs>
     <use xlink:href="#DejaVuSans-6d"/>
     <use xlink:href="#DejaVuSans-65" transform="translate(97.412109 0)"/>
     <use xlink:href="#DejaVuSans-64" transform="translate(158.935547 0)"/>
     <use xlink:href="#DejaVuSans-69" transform="translate(222.412109 0)"/>
     <use xlink:href="#DejaVuSans-75" transform="translate(250.195312 0)"/>
     <use xlink:href="#DejaVuSans-6d" transform="translate(313.574219 0)"/>
    </g>
   </g>
   <g id="patch_5">
    <path d="M 173.277656 348.588281 
L 191.277656 348.588281 
L 191.277656 342.288281 
L 173.277656 342.288281 
z
" style="fill: #27ae60; stroke: #27ae60; stroke-linejoin: miter"/>
   </g>
   <g id="text_19">
    <!-- high -->
    <g transform="translate(198.477656 348.588281) scale(0.09 -0.09)">
     <defs>
      <path id="DejaVuSans-68" d="M 3513 2113 
L 3513 0 
L 2938 0 
L 2938 2094 
Q 2938 2591 2744 2837 
Q 2550 3084 2163 3084 
Q 1697 3084 1428 2787 
Q 1159 2491 1159 1978 
L 1159 0 
L 581 0 
L 581 4863 
L 1159 4863 
L 1159 2956 
Q 1366 3272 1645 3428 
Q 1925 3584 2291 3584 
Q 2894 3584 3203 3211 
Q 3513 2838 3513 2113 
z
" transform="scale(0.015625)"/>
      <path id="DejaVuSans-67" d="M 2906 1791 
Q 2906 2416 2648 2759 
Q 2391 3103 1925 3103 
Q 1463 3103 1205 2759 
Q 947 2416 947 1791 
Q 947 1169 1205 825 
Q 1463 481 1925 481 
Q 2391 481 2648 825 
Q 2906 1169 2906 1791 
z
M 3481 434 
Q 3481 -459 3084 -895 
Q 2688 -1331 1869 -1331 
Q 1566 -1331 1297 -1286 
Q 1028 -1241 775 -1147 
L 775 -588 
Q 1028 -725 1275 -790 
Q 1522 -856 1778 -856 
Q 2344 -856 2625 -561 
Q 2906 -266 2906 331 
L 2906 616 
Q 2728 306 2450 153 
Q 2172 0 1784 0 
Q 1141 0 747 490 
Q 353 981 353 1791 
Q 353 2603 747 3093 
Q 1141 3584 1784 3584 
Q 2172 3584 2450 3431 
Q 2728 3278 2906 2969 
L 2906 3500 
L 3481 3500 
L 3481 434 
z
" transform="scale(0.015625)"/>
     </defs>
     <use xlink:href="#DejaVuSans-68"/>
     <use xlink:href="#DejaVuSans-69" transform="translate(63.378906 0)"/>
     <use xlink:href="#DejaVuSans-67" transform="translate(91.162109 0)"/>
     <use xlink:href="#DejaVuSans-68" transform="translate(154.638672 0)"/>
    </g>
   </g>
   <g id="patch_6">
    <path d="M 236.099062 348.588281 
L 254.099062 348.588281 
L 254.099062 342.288281 
L 236.099062 342.288281 
z
" style="fill: #e8e8e8; stroke: #e8e8e8; stroke-linejoin: miter"/>
   </g>
   <g id="text_20">
    <!-- sin dato -->
    <g transform="translate(261.299062 348.588281) scale(0.09 -0.09)">
     <defs>
      <path id="DejaVuSans-6e" d="M 3513 2113 
L 3513 0 
L 2938 0 
L 2938 2094 
Q 2938 2591 2744 2837 
Q 2550 3084 2163 3084 
Q 1697 3084 1428 2787 
Q 1159 2491 1159 1978 
L 1159 0 
L 581 0 
L 581 3500 
L 1159 3500 
L 1159 2956 
Q 1366 3272 1645 3428 
Q 1925 3584 2291 3584 
Q 2894 3584 3203 3211 
Q 3513 2838 3513 2113 
z
" transform="scale(0.015625)"/>
      <path id="DejaVuSans-20" transform="scale(0.015625)"/>
      <path id="DejaVuSans-61" d="M 2194 1759 
Q 1497 1759 1228 1600 
Q 959 1441 959 1056 
Q 959 750 1161 570 
Q 1363 391 1709 391 
Q 2188 391 2477 730 
Q 2766 1069 2766 1631 
L 2766 1759 
L 2194 1759 
z
M 3341 1997 
L 3341 0 
L 2766 0 
L 2766 531 
Q 2569 213 2275 61 
Q 1981 -91 1556 -91 
Q 1019 -91 701 211 
Q 384 513 384 1019 
Q 384 1609 779 1909 
Q 1175 2209 1959 2209 
L 2766 2209 
L 2766 2266 
Q 2766 2663 2505 2880 
Q 2244 3097 1772 3097 
Q 1472 3097 1187 3025 
Q 903 2953 641 2809 
L 641 3341 
Q 956 3463 1253 3523 
Q 1550 3584 1831 3584 
Q 2591 3584 2966 3190 
Q 3341 2797 3341 1997 
z
" transform="scale(0.015625)"/>
      <path id="DejaVuSans-74" d="M 1172 4494 
L 1172 3500 
L 2356 3500 
L 2356 3053 
L 1172 3053 
L 1172 1153 
Q 1172 725 1289 603 
Q 1406 481 1766 481 
L 2356 481 
L 2356 0 
L 1766 0 
Q 1100 0 847 248 
Q 594 497 594 1153 
L 594 3053 
L 172 3053 
L 172 3500 
L 594 3500 
L 594 4494 
L 1172 4494 
z
" transform="scale(0.015625)"/>
     </defs>
     <use xlink:href="#DejaVuSans-73"/>
     <use xlink:href="#DejaVuSans-69" transform="translate(52.099609 0)"/>
     <use xlink:href="#DejaVuSans-6e" transform="translate(79.882812 0)"/>
     <use xlink:href="#DejaVuSans-20" transform="translate(143.261719 0)"/>
     <use xlink:href="#DejaVuSans-64" transform="translate(175.048828 0)"/>
     <use xlink:href="#DejaVuSans-61" transform="translate(238.525391 0)"/>
     <use xlink:href="#DejaVuSans-74" transform="translate(299.804688 0)"/>
     <use xlink:href="#DejaVuSans-6f" transform="translate(339.013672 0)"/>
    </g>
   </g>
  </g>
 </g>
 <defs>
  <clipPath id="p109170face">
   <rect x="100.21875" y="53.28" width="138.6" height="221.76"/>
  </clipPath>
 </defs>
</svg>
